<svg xmlns="http://www.w3.org/2000/svg" xmlns:xlink="http://www.w3.org/1999/xlink" width="2000" zoomAndPan="magnify" viewBox="0 0 1500 1499.999933" height="2000" preserveAspectRatio="xMidYMid meet" version="1.0"><defs><g/></defs><g fill="#000000" fill-opacity="1"><g transform="translate(0.00003335, 1083.991454)"><g><path d="M 709.484375 -408.359375 C 709.484375 -344.984375 697.148438 -287.457031 672.484375 -235.78125 C 647.828125 -184.113281 615.515625 -141.269531 575.546875 -107.25 C 534.023438 -71.96875 487.738281 -45.269531 436.6875 -27.15625 C 385.644531 -9.050781 332.179688 0 276.296875 0 L -13.578125 0 L -6.5625 -30.90625 C 1.5625 -30.90625 13.035156 -31.6875 27.859375 -33.25 C 42.691406 -34.8125 53.226562 -36.84375 59.46875 -39.34375 C 70.707031 -43.707031 79.210938 -49.867188 84.984375 -57.828125 C 90.765625 -65.796875 94.75 -75.242188 96.9375 -86.171875 L 207.453125 -564.3125 C 208.390625 -568.0625 209.25 -572.195312 210.03125 -576.71875 C 210.8125 -581.25 211.203125 -584.914062 211.203125 -587.71875 C 211.203125 -594.59375 210.03125 -600.601562 207.6875 -605.75 C 205.351562 -610.90625 200.59375 -615.203125 193.40625 -618.640625 C 185.289062 -622.378906 175.300781 -625.578125 163.4375 -628.234375 C 151.570312 -630.890625 142.519531 -632.6875 136.28125 -633.625 L 143.296875 -664.53125 L 424.75 -664.53125 C 452.851562 -664.53125 483.453125 -660.546875 516.546875 -652.578125 C 549.640625 -644.617188 580.546875 -630.960938 609.265625 -611.609375 C 639.546875 -591.316406 663.816406 -564.234375 682.078125 -530.359375 C 700.347656 -496.484375 709.484375 -455.816406 709.484375 -408.359375 Z M 599.4375 -407.890625 C 599.4375 -477.828125 580.703125 -532.148438 543.234375 -570.859375 C 505.773438 -609.578125 455.976562 -628.9375 393.84375 -628.9375 C 381.039062 -628.9375 367.769531 -628.703125 354.03125 -628.234375 C 340.300781 -627.765625 329.535156 -627.375 321.734375 -627.0625 L 202.78125 -111.453125 C 201.84375 -107.085938 201.0625 -102.875 200.4375 -98.8125 C 199.8125 -94.75 199.5 -90.847656 199.5 -87.109375 C 199.5 -68.367188 207.300781 -55.175781 222.90625 -47.53125 C 238.519531 -39.882812 264.125 -36.0625 299.71875 -36.0625 C 346.238281 -36.0625 388.617188 -46.675781 426.859375 -67.90625 C 465.109375 -89.132812 496.875 -117.390625 522.15625 -152.671875 C 548.070312 -189.191406 567.429688 -228.992188 580.234375 -272.078125 C 593.035156 -315.171875 599.4375 -360.441406 599.4375 -407.890625 Z M 599.4375 -407.890625 "/></g></g><g transform="translate(718.388381, 1083.991454)"><g><path d="M 829.375 -664.53125 L 822.34375 -633.625 C 813.601562 -633.3125 802.675781 -631.90625 789.5625 -629.40625 C 776.445312 -626.90625 766.457031 -624.5625 759.59375 -622.375 C 747.414062 -618.320312 738.671875 -611.921875 733.359375 -603.171875 C 728.054688 -594.429688 724.15625 -585.066406 721.65625 -575.078125 L 610.203125 -91.3125 C 609.578125 -88.820312 609.109375 -86.015625 608.796875 -82.890625 C 608.484375 -79.765625 608.328125 -77.109375 608.328125 -74.921875 C 608.328125 -68.367188 609.734375 -62.59375 612.546875 -57.59375 C 615.359375 -52.601562 619.882812 -48.078125 626.125 -44.015625 C 630.8125 -41.210938 639.316406 -38.40625 651.640625 -35.59375 C 663.972656 -32.78125 674.515625 -31.21875 683.265625 -30.90625 L 676.234375 0 L 400.40625 0 L 407.421875 -30.90625 C 415.234375 -31.53125 426.316406 -32.46875 440.671875 -33.71875 C 455.035156 -34.96875 465.1875 -36.84375 471.125 -39.34375 C 482.050781 -43.394531 490.476562 -49.320312 496.40625 -57.125 C 502.332031 -64.9375 506.546875 -74.617188 509.046875 -86.171875 L 564.3125 -325.9375 L 251.953125 -325.9375 L 198.09375 -91.3125 C 197.46875 -88.820312 197 -86.171875 196.6875 -83.359375 C 196.375 -80.546875 196.21875 -77.890625 196.21875 -75.390625 C 196.21875 -69.148438 197.703125 -63.21875 200.671875 -57.59375 C 203.640625 -51.976562 208.085938 -47.453125 214.015625 -44.015625 C 218.703125 -41.210938 227.207031 -38.40625 239.53125 -35.59375 C 251.863281 -32.78125 262.40625 -31.21875 271.15625 -30.90625 L 264.125 0 L -11.703125 0 L -4.6875 -30.90625 C 3.125 -31.53125 14.207031 -32.46875 28.5625 -33.71875 C 42.925781 -34.96875 53.070312 -36.84375 59 -39.34375 C 69.925781 -43.394531 78.351562 -49.320312 84.28125 -57.125 C 90.21875 -64.9375 94.4375 -74.617188 96.9375 -86.171875 L 208.859375 -570.40625 C 209.484375 -572.894531 209.953125 -575.46875 210.265625 -578.125 C 210.578125 -580.78125 210.734375 -583.515625 210.734375 -586.328125 C 210.734375 -593.191406 209.40625 -599.117188 206.75 -604.109375 C 204.101562 -609.109375 199.34375 -613.484375 192.46875 -617.234375 C 184.976562 -621.285156 175.613281 -624.875 164.375 -628 C 153.132812 -631.125 143.144531 -633 134.40625 -633.625 L 141.421875 -664.53125 L 417.265625 -664.53125 L 410.234375 -633.625 C 401.492188 -633.3125 390.566406 -631.90625 377.453125 -629.40625 C 364.335938 -626.90625 354.347656 -624.5625 347.484375 -622.375 C 335.304688 -618.320312 326.5625 -611.921875 321.25 -603.171875 C 315.945312 -594.429688 312.046875 -585.066406 309.546875 -575.078125 L 261.78125 -365.75 L 574.140625 -365.75 L 620.96875 -570.40625 C 621.59375 -572.894531 622.0625 -575.46875 622.375 -578.125 C 622.6875 -580.78125 622.84375 -583.359375 622.84375 -585.859375 C 622.84375 -592.722656 621.515625 -598.726562 618.859375 -603.875 C 616.210938 -609.03125 611.453125 -613.484375 604.578125 -617.234375 C 597.085938 -621.285156 587.722656 -624.875 576.484375 -628 C 565.242188 -631.125 555.253906 -633 546.515625 -633.625 L 553.546875 -664.53125 Z M 829.375 -664.53125 "/></g></g></g></svg>